Coordinates
version=1
nRows=5
nColumns=40
inDegrees=yes

Units are S.I. units (second, meters, Newtons, ...)
If the header above contains a line with 'inDegrees', this indicates whether rotational values are in degrees (yes) or radians (no).

endheader
time	pelvis_tilt	pelvis_list	pelvis_rotation	pelvis_tx	pelvis_ty	pelvis_tz	hip_flexion_r	hip_adduction_r	hip_rotation_r	knee_angle_r	knee_angle_r_beta	ankle_angle_r	subtalar_angle_r	mtp_angle_r	hip_flexion_l	hip_adduction_l	hip_rotation_l	knee_angle_l	knee_angle_l_beta	ankle_angle_l	subtalar_angle_l	mtp_angle_l	lumbar_extension	lumbar_bending	lumbar_rotation	arm_flex_r	arm_add_r	arm_rot_r	elbow_flex_r	pro_sup_r	wrist_flex_r	wrist_dev_r	arm_flex_l	arm_add_l	arm_rot_l	elbow_flex_l	pro_sup_l	wrist_flex_l	wrist_dev_l
      2.00000000	    -16.03874146	     -4.97526446	    -11.07574688	     -0.28150312	      1.03749869	     -1.07205994	     -1.47869600	     -8.74330161	     -7.73101192	     40.24289546	      0.70237103	    -12.76520984	      0.00000000	      0.00000000	     24.00862456	     -5.92989849	     -8.39148471	     19.91311167	      0.34754936	     -3.54429488	      0.00000000	      0.00000000	      5.74675455	     -5.57162730	     10.38252684	     89.94279678	    -21.58467891	     19.59470172	     41.32439362	     78.24067784	      0.00000000	      0.00000000	     89.91655681	    -36.46592733	     15.09801876	     45.87593756	     85.21995531	      0.00000000	      0.00000000
      2.00500000	    -16.03754700	     -4.99995307	    -11.04706651	     -0.28159239	      1.03742490	     -1.07207371	     -1.49640953	     -8.69761328	     -7.59727488	     40.19396867	      0.70151709	    -12.71748915	      0.00000000	      0.00000000	     24.06418224	     -5.92743899	     -8.35064565	     20.01332211	      0.34929837	     -3.54912809	      0.00000000	      0.00000000	      5.71303727	     -5.53697651	     10.32409410	     89.94279666	    -21.53671577	     19.69506961	     41.26659166	     77.73896379	      0.00000000	      0.00000000	     89.91674009	    -36.48588655	     15.09134428	     45.77939930	     85.22893482	      0.00000000	      0.00000000
      2.01000000	    -16.05509388	     -5.01287162	    -11.06168560	     -0.28167255	      1.03731281	     -1.07204935	     -1.44485757	     -8.68819790	     -7.48052863	     40.23109212	      0.70216502	    -12.72202390	      0.00000000	      0.00000000	     24.10270252	     -5.92403852	     -8.32777068	     20.03254618	      0.34963389	     -3.46435362	      0.00000000	      0.00000000	      5.71571874	     -5.50582121	     10.35224982	     89.94275642	    -21.54963880	     19.87423602	     41.19385697	     77.25542378	      0.00000000	      0.00000000	     89.91682968	    -36.44456490	     15.11939462	     45.66116844	     85.27895224	      0.00000000	      0.00000000
      2.01500000	    -16.06855136	     -5.00867300	    -11.04848318	     -0.28176291	      1.03718434	     -1.07203573	     -1.40949348	     -8.69239292	     -7.38945550	     40.25092096	      0.70251110	    -12.64728297	      0.00000000	      0.00000000	     24.16556490	     -5.90570351	     -8.34020026	     20.11636543	      0.35109681	     -3.53758360	      0.00000000	      0.00000000	      5.71542206	     -5.49690560	     10.34328981	     89.94270050	    -21.54308292	     19.78260390	     41.07499428	     79.18631146	      0.00000000	      0.00000000	     89.91726291	    -36.44467364	     15.17493358	     45.59685489	     85.08201064	      0.00000000	      0.00000000
      2.02000000	    -16.07110328	     -4.99498396	    -11.05654871	     -0.28186583	      1.03709195	     -1.07201932	     -1.36795154	     -8.70524976	     -7.25272010	     40.30017275	      0.70337070	    -12.57918491	      0.00000000	      0.00000000	     24.18521413	     -5.86784607	     -8.34687290	     20.11801912	      0.35112567	     -3.58240697	      0.00000000	      0.00000000	      5.70410572	     -5.48861976	     10.32424290	     89.94276236	    -21.46565586	     19.97156731	     41.02307421	     77.80212298	      0.00000000	      0.00000000	     89.91703695	    -36.50809732	     15.28088791	     45.53420758	     85.04516178	      0.00000000	      0.00000000
